M48
; DRILL file {KiCad 9.0.2} date 2025-06-18T15:01:24+0200
; FORMAT={-:-/ absolute / metric / decimal}
; #@! TF.CreationDate,2025-06-18T15:01:24+02:00
; #@! TF.GenerationSoftware,Kicad,Pcbnew,9.0.2
; #@! TF.FileFunction,Plated,1,2,PTH
FMAT,2
METRIC
; #@! TA.AperFunction,Plated,PTH,ComponentDrill
T1C0.350
; #@! TA.AperFunction,Plated,PTH,ViaDrill
T2C0.400
; #@! TA.AperFunction,Plated,PTH,ComponentDrill
T3C0.600
; #@! TA.AperFunction,Plated,PTH,ComponentDrill
T4C0.700
; #@! TA.AperFunction,Plated,PTH,ComponentDrill
T5C1.000
%
G90
G05
T1
X151.912Y-96.77
X152.813Y-95.868
X152.813Y-97.672
X153.715Y-94.967
X153.715Y-96.77
X153.715Y-98.573
X154.617Y-95.868
X154.617Y-97.672
X155.518Y-96.77
T2
X57.658Y-97.282
X59.69Y-73.66
X61.468Y-54.61
X62.992Y-35.814
X76.454Y-99.06
X78.74Y-75.438
X80.264Y-56.388
X82.042Y-37.338
X97.536Y-76.962
X97.79Y-102.87
X99.314Y-57.912
X101.092Y-39.116
X116.586Y-78.74
X118.364Y-59.69
X119.888Y-40.894
X127.0Y-109.474
X134.264Y-78.181
X135.636Y-80.264
X136.398Y-64.008
X137.23Y-49.07
X138.938Y-42.418
X139.49Y-86.26
X141.95Y-41.86
X142.67Y-45.76
X143.49Y-44.91
X145.53Y-79.36
X146.38Y-87.45
X146.38Y-108.12
X146.56Y-78.76
X146.75Y-104.7
X146.888Y-72.593
X147.1Y-107.3
X147.21Y-40.98
X147.305Y-42.115
X147.55Y-76.69
X147.89Y-53.36
X148.032Y-102.658
X148.26Y-97.19
X148.59Y-76.17
X149.59Y-75.84
X149.83Y-92.59
X150.056Y-77.426
X150.73Y-91.88
X151.11Y-77.36
X151.48Y-89.49
X151.595Y-91.085
X151.98Y-101.53
X152.11Y-77.35
X153.02Y-90.94
X153.75Y-104.34
X153.77Y-102.22
X154.27Y-99.52
X155.38Y-35.34
X155.48Y-95.21
X156.17Y-49.37
X156.29Y-64.33
X156.591Y-110.998
X156.7Y-83.51
X157.251Y-116.561
X158.765Y-96.275
X158.826Y-104.648
X158.94Y-75.8
X159.21Y-100.28
X159.57Y-70.61
X159.77Y-97.04
X160.41Y-77.46
X160.5Y-101.63
X160.54Y-97.83
X161.2Y-98.62
X162.281Y-58.064
X162.45Y-99.66
X163.94Y-41.28
X164.846Y-52.07
X169.66Y-112.192
X171.348Y-120.345
X179.82Y-103.31
X180.594Y-41.148
X182.372Y-59.944
X184.15Y-79.248
X191.77Y-105.156
X199.644Y-39.624
X201.422Y-58.42
X202.946Y-77.47
X218.694Y-37.846
X220.218Y-56.896
X221.488Y-100.584
X221.742Y-75.946
X237.49Y-36.322
X239.268Y-55.372
X240.792Y-74.168
X242.824Y-98.044
X256.54Y-34.544
X258.318Y-53.594
X259.842Y-72.644
X261.874Y-96.266
T4
X153.685Y-69.62
T5
X144.945Y-45.545
X144.945Y-48.085
X144.945Y-50.625
X146.215Y-111.87
X146.215Y-114.37
X146.215Y-116.87
X151.225Y-59.21
X151.225Y-73.71
X153.725Y-73.71
X156.225Y-59.21
X156.225Y-73.71
X156.66Y-108.815
X159.2Y-108.815
X160.715Y-111.87
X160.715Y-116.87
X166.225Y-109.24
X166.225Y-111.78
X166.225Y-114.32
X166.225Y-116.86
X166.225Y-119.4
T3
X149.39Y-31.62G85X149.39Y-32.22
G05
X149.39Y-35.55G85X149.39Y-36.65
G05
X158.03Y-31.62G85X158.03Y-32.22
G05
X158.03Y-35.55G85X158.03Y-36.65
G05
M30
