M48
; DRILL file {KiCad 9.0.2} date 2025-06-17T17:54:49+0200
; FORMAT={-:-/ absolute / metric / decimal}
; #@! TF.CreationDate,2025-06-17T17:54:49+02:00
; #@! TF.GenerationSoftware,Kicad,Pcbnew,9.0.2
; #@! TF.FileFunction,NonPlated,1,2,NPTH
FMAT,2
METRIC
; #@! TA.AperFunction,NonPlated,NPTH,ComponentDrill
T1C0.650
; #@! TA.AperFunction,NonPlated,NPTH,ComponentDrill
T2C1.500
; #@! TA.AperFunction,NonPlated,NPTH,ComponentDrill
T3C1.702
; #@! TA.AperFunction,NonPlated,NPTH,ComponentDrill
T4C3.048
; #@! TA.AperFunction,NonPlated,NPTH,ComponentDrill
T5C3.988
%
G90
G05
T1
X150.82Y-35.57
X156.6Y-35.57
T3
X46.107Y-101.556
X48.117Y-77.826
X49.757Y-58.856
X51.437Y-39.866
X56.228Y-102.442
X58.238Y-78.712
X59.878Y-59.742
X61.558Y-40.752
X65.027Y-103.236
X67.097Y-79.466
X68.757Y-60.506
X70.407Y-41.516
X75.148Y-104.122
X77.218Y-80.352
X78.878Y-61.392
X80.528Y-42.402
X85.957Y-105.985
X86.057Y-81.166
X87.717Y-62.186
X89.387Y-43.196
X95.963Y-107.749
X96.178Y-82.052
X97.838Y-63.072
X99.508Y-44.082
X105.057Y-82.806
X106.707Y-63.846
X108.367Y-44.856
X114.773Y-110.42
X115.178Y-83.692
X116.828Y-64.732
X118.488Y-45.742
X124.055Y-84.436
X124.32Y-113.895
X125.687Y-65.496
X127.327Y-46.546
X134.176Y-85.322
X135.808Y-66.382
X137.448Y-47.432
X169.882Y-47.332
X171.592Y-66.312
X173.262Y-85.322
X180.003Y-46.446
X181.713Y-65.426
X183.15Y-113.875
X183.383Y-84.436
X188.882Y-45.662
X190.552Y-64.632
X192.232Y-83.612
X192.697Y-110.4
X199.003Y-44.776
X200.673Y-63.746
X202.353Y-82.726
X207.832Y-44.012
X209.562Y-62.942
X211.162Y-81.942
X211.427Y-107.639
X217.953Y-43.126
X219.683Y-62.056
X221.283Y-81.056
X221.433Y-105.875
X226.852Y-42.332
X228.532Y-61.312
X230.152Y-80.272
X232.232Y-104.042
X236.973Y-41.446
X238.653Y-60.426
X240.273Y-79.386
X242.353Y-103.156
X245.822Y-40.642
X247.492Y-59.652
X249.142Y-78.612
X251.192Y-102.372
X255.943Y-39.756
X257.613Y-58.766
X259.263Y-77.726
X261.313Y-101.486
T4
X47.593Y-99.137
X49.603Y-75.407
X51.243Y-56.437
X52.923Y-37.447
X54.141Y-97.16
X56.151Y-73.43
X57.791Y-54.46
X59.471Y-35.47
X66.513Y-100.817
X68.583Y-77.047
X70.243Y-58.087
X71.893Y-39.097
X73.061Y-98.84
X75.131Y-75.07
X76.791Y-56.11
X78.441Y-37.12
X87.543Y-78.747
X87.649Y-103.704
X89.203Y-59.767
X90.873Y-40.777
X94.091Y-76.77
X94.344Y-102.305
X95.751Y-57.79
X97.421Y-38.8
X106.543Y-80.387
X108.193Y-61.427
X109.853Y-42.437
X113.091Y-78.41
X114.741Y-59.45
X116.401Y-40.46
X116.835Y-108.468
X123.671Y-108.253
X125.541Y-82.017
X127.173Y-63.077
X128.813Y-44.127
X132.088Y-80.04
X133.721Y-61.1
X135.361Y-42.15
X170.926Y-44.691
X172.636Y-63.671
X174.306Y-82.681
X177.03Y-41.607
X178.74Y-60.587
X180.41Y-79.597
X183.474Y-111.054
X188.573Y-106.496
X189.926Y-43.021
X191.596Y-61.991
X193.276Y-80.971
X196.03Y-39.937
X197.7Y-58.907
X199.38Y-77.887
X208.876Y-41.371
X210.606Y-60.301
X212.206Y-79.301
X212.237Y-104.917
X214.98Y-38.287
X216.71Y-57.217
X218.049Y-101.313
X218.31Y-76.217
X227.896Y-39.691
X229.576Y-58.671
X231.196Y-77.631
X233.276Y-101.401
X234.0Y-36.607
X235.68Y-55.587
X237.3Y-74.547
X239.38Y-98.317
X246.866Y-38.001
X248.536Y-57.011
X250.186Y-75.971
X252.236Y-99.731
X252.97Y-34.917
X254.64Y-53.927
X256.29Y-72.887
X258.34Y-96.647
T5
X51.168Y-101.999
X53.178Y-78.269
X54.818Y-59.299
X56.498Y-40.309
X70.088Y-103.679
X72.158Y-79.909
X73.818Y-60.949
X75.468Y-41.959
X90.96Y-106.867
X91.118Y-81.609
X92.778Y-62.629
X94.448Y-43.639
X110.118Y-83.249
X111.768Y-64.289
X113.428Y-45.299
X119.547Y-112.158
X129.115Y-84.879
X130.748Y-65.939
X132.388Y-46.989
X174.942Y-46.889
X176.652Y-65.869
X178.322Y-84.879
X187.923Y-112.138
X193.942Y-45.219
X195.612Y-64.189
X197.292Y-83.169
X212.892Y-43.569
X214.622Y-62.499
X216.222Y-81.499
X216.43Y-106.757
X231.912Y-41.889
X233.592Y-60.869
X235.212Y-79.829
X237.292Y-103.599
X250.882Y-40.199
X252.552Y-59.209
X254.202Y-78.169
X256.252Y-101.929
T2
X148.125Y-66.86G85X148.125Y-65.56
G05
X153.065Y-108.77G85X154.365Y-108.77
G05
X153.065Y-119.97G85X154.365Y-119.97
G05
X159.325Y-66.86G85X159.325Y-65.56
G05
M30
